<svg width="50" height="50" viewBox="0 0 50 50" fill="none" xmlns="http://www.w3.org/2000/svg">
<g clip-path="url(#clip0_174_1097)">
<path d="M24.9999 14.5833C30.7499 14.5833 35.4166 19.25 35.4166 25C35.4166 26.3438 35.1458 27.625 34.677 28.8021L40.7707 34.8958C43.9166 32.2708 46.3957 28.875 47.927 25C44.3124 15.8542 35.427 9.375 24.9999 9.375C22.0833 9.375 19.2916 9.89583 16.6978 10.8333L21.1978 15.3229C22.3749 14.8646 23.6562 14.5833 24.9999 14.5833ZM4.16659 8.90625L8.91659 13.6562L9.8645 14.6042C6.427 17.2917 3.70825 20.8646 2.08325 25C5.68742 34.1458 14.5833 40.625 24.9999 40.625C28.2291 40.625 31.3124 40 34.1353 38.8646L35.0207 39.75L41.0937 45.8333L43.7499 43.1875L6.82284 6.25L4.16659 8.90625ZM15.6874 20.4167L18.9062 23.6354C18.8124 24.0833 18.7499 24.5313 18.7499 25C18.7499 28.4479 21.552 31.25 24.9999 31.25C25.4687 31.25 25.9166 31.1875 26.3541 31.0938L29.5728 34.3125C28.1874 35 26.6458 35.4167 24.9999 35.4167C19.2499 35.4167 14.5833 30.75 14.5833 25C14.5833 23.3542 14.9999 21.8125 15.6874 20.4167ZM24.6562 18.7813L31.2187 25.3438L31.2499 25C31.2499 21.5521 28.4478 18.75 24.9999 18.75L24.6562 18.7813Z" fill="#898989"/>
</g>
<defs>
<clipPath id="clip0_174_1097">
<rect width="50" height="50" fill="#898989"/>
</clipPath>
</defs>
</svg>
