<svg width="50" height="50" viewBox="0 0 50 50" fill="none" xmlns="http://www.w3.org/2000/svg">
<g clip-path="url(#clip0_174_1094)">
<path d="M24.9999 9.375C14.5832 9.375 5.6874 15.8542 2.08324 25C5.6874 34.1458 14.5832 40.625 24.9999 40.625C35.4166 40.625 44.3124 34.1458 47.9166 25C44.3124 15.8542 35.4166 9.375 24.9999 9.375ZM24.9999 35.4167C19.2499 35.4167 14.5832 30.75 14.5832 25C14.5832 19.25 19.2499 14.5833 24.9999 14.5833C30.7499 14.5833 35.4166 19.25 35.4166 25C35.4166 30.75 30.7499 35.4167 24.9999 35.4167ZM24.9999 18.75C21.5416 18.75 18.7499 21.5417 18.7499 25C18.7499 28.4583 21.5416 31.25 24.9999 31.25C28.4582 31.25 31.2499 28.4583 31.2499 25C31.2499 21.5417 28.4582 18.75 24.9999 18.75Z" fill="#898989"/>
</g>
<defs>
<clipPath id="clip0_174_1094">
<rect width="50" height="50" fill="#898989"/>
</clipPath>
</defs>
</svg>
