<svg
              role="img"
              aria-labelledby="title"
                width="24"
                height="24"
                viewBox="0 0 24 24"
                fill="none"
                xmlns="http://www.w3.org/2000/svg"
              >
              <title>정현주 깃허브 바로가기</title>
                <rect width="24" height="24" rx="12" fill="#2B2B2B" />
                <path
                  d="M4.816 7.88H7.712V11.224H10.192V7.88H13.088V17H10.192V13.064H7.712V17H4.816V7.88ZM18.9303 7.88V13.72C18.9303 14.5307 18.8556 15.1867 18.7063 15.688C18.5569 16.1893 18.2903 16.568 17.9062 16.824C17.5329 17.08 17.0049 17.208 16.3223 17.208C15.5969 17.208 14.8343 17.1387 14.0343 17L14.2743 15.16C14.5729 15.1707 14.9143 15.1653 15.2983 15.144C15.6823 15.1227 15.9009 15.08 15.9543 15.016C16.0183 14.9093 16.0503 14.6533 16.0503 14.248C16.0503 13.8427 16.0503 13.6133 16.0503 13.56V7.88H18.9303Z"
                  fill="#6B6B6B"
                />
              </svg>