<svg width="24" height="24" viewBox="0 0 24 24" fill="none" xmlns="http://www.w3.org/2000/svg">
<title>정현수 깃허브 바로가기</title>
<rect width="24" height="24" rx="12" fill="#2B2B2B"/>
<path d="M3.816 7.88H6.712V11.224H9.192V7.88H12.088V17H9.192V13.064H6.712V17H3.816V7.88ZM16.3303 10.344C16.3303 10.568 16.4423 10.744 16.6663 10.872C16.9009 11 17.2636 11.1387 17.7543 11.288C18.3409 11.48 18.8209 11.6667 19.1943 11.848C19.5783 12.0293 19.9089 12.312 20.1863 12.696C20.4743 13.08 20.6183 13.5813 20.6183 14.2C20.6183 16.184 19.3276 17.176 16.7463 17.176C16.3196 17.176 15.7969 17.1387 15.1783 17.064C14.5703 16.9893 14.0156 16.8933 13.5143 16.776C13.5356 16.552 13.5783 16.2267 13.6423 15.8C13.7169 15.3627 13.7863 15.0373 13.8503 14.824C14.2236 14.8773 14.7836 14.9413 15.5303 15.016C16.2876 15.0907 16.8583 15.128 17.2423 15.128C17.4663 15.128 17.5996 15.112 17.6423 15.08C17.7063 15.0373 17.7543 14.968 17.7863 14.872C17.8289 14.7653 17.8503 14.6747 17.8503 14.6C17.8503 14.3867 17.7489 14.2267 17.5463 14.12C17.3436 14.0027 16.9969 13.864 16.5063 13.704C15.9196 13.5227 15.4343 13.336 15.0503 13.144C14.6663 12.952 14.3303 12.6533 14.0423 12.248C13.7543 11.8427 13.6103 11.3093 13.6103 10.648C13.6103 10.1787 13.7169 9.72 13.9303 9.272C14.1436 8.81333 14.3623 8.504 14.5863 8.344C14.7569 8.22667 15.1089 8.11467 15.6423 8.008C16.1756 7.90133 16.6769 7.848 17.1463 7.848C18.3409 7.848 19.3169 7.96 20.0743 8.184C20.0636 8.39733 20.0263 8.69067 19.9623 9.064C19.9089 9.43733 19.8503 9.77867 19.7863 10.088L19.4183 10.072C18.0316 9.976 17.1463 9.928 16.7623 9.928C16.6023 9.928 16.5116 9.93333 16.4903 9.944C16.4476 9.96533 16.4103 10.0133 16.3783 10.088C16.3463 10.1627 16.3303 10.248 16.3303 10.344Z" fill="#6B6B6B"/>
</svg>
