<svg
              role="img"
              aria-labelledby=""
                width="24"
                height="24"
                viewBox="0 0 24 24"
                fill="none"
                xmlns="http://www.w3.org/2000/svg"
              >
              <title>정예슬 깃허브 바로가기</title>
                <rect width="24" height="24" rx="12" fill="#2B2B2B" />
                <path
                  d="M9.84 14.088V17H6.96V14.12L3.888 7.88H6.816L8.032 10.84C8.16 11.1387 8.27733 11.4533 8.384 11.784H8.416C8.53333 11.4213 8.65067 11.096 8.768 10.808L9.968 7.88H12.88L9.84 14.088ZM15.8146 10.344C15.8146 10.568 15.9266 10.744 16.1506 10.872C16.3853 11 16.748 11.1387 17.2386 11.288C17.8253 11.48 18.3053 11.6667 18.6786 11.848C19.0626 12.0293 19.3933 12.312 19.6706 12.696C19.9586 13.08 20.1026 13.5813 20.1026 14.2C20.1026 16.184 18.812 17.176 16.2306 17.176C15.804 17.176 15.2813 17.1387 14.6626 17.064C14.0546 16.9893 13.5 16.8933 12.9986 16.776C13.02 16.552 13.0626 16.2267 13.1266 15.8C13.2013 15.3627 13.2706 15.0373 13.3346 14.824C13.708 14.8773 14.268 14.9413 15.0146 15.016C15.772 15.0907 16.3426 15.128 16.7266 15.128C16.9506 15.128 17.084 15.112 17.1266 15.08C17.1906 15.0373 17.2386 14.968 17.2706 14.872C17.3133 14.7653 17.3346 14.6747 17.3346 14.6C17.3346 14.3867 17.2333 14.2267 17.0306 14.12C16.828 14.0027 16.4813 13.864 15.9906 13.704C15.404 13.5227 14.9186 13.336 14.5346 13.144C14.1506 12.952 13.8146 12.6533 13.5266 12.248C13.2386 11.8427 13.0946 11.3093 13.0946 10.648C13.0946 10.1787 13.2013 9.72 13.4146 9.272C13.628 8.81333 13.8466 8.504 14.0706 8.344C14.2413 8.22667 14.5933 8.11467 15.1266 8.008C15.66 7.90133 16.1613 7.848 16.6306 7.848C17.8253 7.848 18.8013 7.96 19.5586 8.184C19.548 8.39733 19.5106 8.69067 19.4466 9.064C19.3933 9.43733 19.3346 9.77867 19.2706 10.088L18.9026 10.072C17.516 9.976 16.6306 9.928 16.2466 9.928C16.0866 9.928 15.996 9.93333 15.9746 9.944C15.932 9.96533 15.8946 10.0133 15.8626 10.088C15.8306 10.1627 15.8146 10.248 15.8146 10.344Z"
                  fill="#6B6B6B"
                />
              </svg>