<svg width="24" height="24" viewBox="0 0 24 24" fill="none" xmlns="http://www.w3.org/2000/svg">
<rect width="24" height="24" rx="12" fill="#2B2B2B"/>
<path d="M7.424 9.344C7.424 9.568 7.536 9.744 7.76 9.872C7.99467 10 8.35733 10.1387 8.848 10.288C9.43467 10.48 9.91467 10.6667 10.288 10.848C10.672 11.0293 11.0027 11.312 11.28 11.696C11.568 12.08 11.712 12.5813 11.712 13.2C11.712 15.184 10.4213 16.176 7.84 16.176C7.41333 16.176 6.89067 16.1387 6.272 16.064C5.664 15.9893 5.10933 15.8933 4.608 15.776C4.62933 15.552 4.672 15.2267 4.736 14.8C4.81067 14.3627 4.88 14.0373 4.944 13.824C5.31733 13.8773 5.87733 13.9413 6.624 14.016C7.38133 14.0907 7.952 14.128 8.336 14.128C8.56 14.128 8.69333 14.112 8.736 14.08C8.8 14.0373 8.848 13.968 8.88 13.872C8.92267 13.7653 8.944 13.6747 8.944 13.6C8.944 13.3867 8.84267 13.2267 8.64 13.12C8.43733 13.0027 8.09067 12.864 7.6 12.704C7.01333 12.5227 6.528 12.336 6.144 12.144C5.76 11.952 5.424 11.6533 5.136 11.248C4.848 10.8427 4.704 10.3093 4.704 9.648C4.704 9.17867 4.81067 8.72 5.024 8.272C5.23733 7.81333 5.456 7.504 5.68 7.344C5.85067 7.22667 6.20267 7.11467 6.736 7.008C7.26933 6.90133 7.77067 6.848 8.24 6.848C9.43467 6.848 10.4107 6.96 11.168 7.184C11.1573 7.39733 11.12 7.69067 11.056 8.064C11.0027 8.43733 10.944 8.77867 10.88 9.088L10.512 9.072C9.12533 8.976 8.24 8.928 7.856 8.928C7.696 8.928 7.60533 8.93333 7.584 8.944C7.54133 8.96533 7.504 9.01333 7.472 9.088C7.44 9.16267 7.424 9.248 7.424 9.344ZM13.0024 6.88H15.8824V13.888H19.6104V16H13.0024V6.88Z" fill="#6B6B6B"/>
</svg>
