<svg width="36" height="36" viewBox="0 0 36 36" fill="none" xmlns="http://www.w3.org/2000/svg">
<g clip-path="url(#clip0_15_429)">
<path d="M29.0122 11.9375L24.4987 16.451C24.7762 17.5627 24.7615 18.7273 24.4556 19.8316C24.1498 20.9358 23.5633 21.9421 22.7533 22.7525C21.9433 23.563 20.9372 24.15 19.8331 24.4565C18.7291 24.763 17.5646 24.7785 16.4527 24.5015L13.3867 27.5675C14.8847 28.0109 16.4384 28.2367 18.0006 28.238C21.319 28.1555 24.5499 27.1556 27.3348 25.3491C30.1196 23.5426 32.3497 21.0001 33.7777 18.0035C32.5958 15.6928 30.9775 13.6329 29.0122 11.9375Z" fill="#A6A6A6"/>
<path d="M29.938 4.53516L25.0826 9.38916C22.8738 8.32328 20.4536 7.76758 18.001 7.76316C14.6822 7.84565 11.4512 8.84574 8.66605 10.6525C5.88094 12.4593 3.65075 15.0022 2.22266 17.9992C3.77315 21.0492 6.09573 23.6397 8.95911 25.5127L3.00864 31.4632H6.06412L32.9921 4.53516H29.938ZM18.001 14.6242C17.4267 14.6205 16.8611 14.7645 16.3583 15.0422C15.8555 15.3199 15.4325 15.722 15.1298 16.2101C14.827 16.6982 14.6547 17.2559 14.6292 17.8297C14.6038 18.4035 14.7262 18.9742 14.9846 19.4872L12.5846 21.8872C11.7541 20.7614 11.3052 19.3996 11.3036 18.0007C11.3036 16.2248 12.0091 14.5216 13.2648 13.2659C14.5206 12.0101 16.2237 11.3047 17.9996 11.3047C19.398 11.3065 20.7592 11.7554 21.8845 12.5857L19.4846 14.9857C19.0247 14.7519 18.5169 14.6281 18.001 14.6242Z" fill="#A6A6A6"/>
</g>
<defs>
<clipPath id="clip0_15_429">
<rect width="36" height="36" fill="white"/>
</clipPath>
</defs>
</svg>
