<svg width="20" height="20" viewBox="0 0 20 20" fill="none" xmlns="http://www.w3.org/2000/svg">
<g clip-path="url(#clip0_97_5093)">
<path d="M16.1183 6.63281L13.6108 9.14031C13.765 9.75792 13.7568 10.4049 13.5869 11.0184C13.417 11.6319 13.0912 12.1909 12.6412 12.6412C12.1912 13.0914 11.6322 13.4175 11.0188 13.5878C10.4055 13.7581 9.75853 13.7667 9.14084 13.6128L7.4375 15.3161C8.26969 15.5625 9.1329 15.6879 10.0008 15.6886C11.8443 15.6428 13.6393 15.0873 15.1864 14.0837C16.7336 13.0801 17.9725 11.6676 18.7658 10.0028C18.1092 8.71908 17.2101 7.57468 16.1183 6.63281Z" fill="#A6A6A6"/>
<path d="M16.6328 2.51953L13.9353 5.2162C12.7082 4.62404 11.3636 4.31532 10.0011 4.31286C8.15734 4.35869 6.3623 4.9143 4.81501 5.91807C3.26773 6.92184 2.02874 8.33455 1.23535 9.99953C2.09674 11.694 3.38706 13.1332 4.97782 14.1737L1.67201 17.4795H3.3695L18.3295 2.51953H16.6328ZM10.0011 8.12453C9.68203 8.12252 9.36781 8.20248 9.08849 8.35676C8.80917 8.51104 8.57417 8.73446 8.40596 9.00563C8.23776 9.27679 8.14202 9.5866 8.1279 9.90538C8.11378 10.2242 8.18178 10.5412 8.32535 10.8262L6.99198 12.1595C6.53059 11.5341 6.28122 10.7776 6.28031 10.0004C6.28031 9.01376 6.67226 8.06756 7.36989 7.36993C8.06753 6.67229 9.0137 6.28036 10.0003 6.28036C10.7772 6.28139 11.5334 6.53075 12.1586 6.99203L10.8253 8.32536C10.5698 8.19549 10.2877 8.12674 10.0011 8.12453Z" fill="#A6A6A6"/>
</g>
<defs>
<clipPath id="clip0_97_5093">
<rect width="20" height="20" fill="white"/>
</clipPath>
</defs>
</svg>
