          <svg 
          role="img"
          aria-labelledby="title"
          width="46" height="15" viewBox="0 0 765 230" fill="none" xmlns="http://www.w3.org/2000/svg">
          <title>정가네 로고</title>
          <g>
              <path d="M20.91 174.72H49.15C56.5 174.72 61.44 173.34 63.97 170.58C66.5 167.82 67.76 163.92 67.76 158.86V0H143.58V171.62C143.58 192.99 138.7 208.04 128.93 216.76C119.16 225.49 103.6 229.86 82.23 229.86H0L20.91 174.72ZM169.78 0H339.58L316.7 60.31H243.18V96.81H302.81L281.11 154.02H243.18V229.86H169.78V0ZM368.56 0H423.7L510.89 229.86H438.52L430.94 209.18H361.33L353.75 229.86H281.38L368.56 0ZM414.67 161.47L396.13 113.26L377.59 161.47H414.67ZM524.05 0H584.7L644.66 88.22L704.29 0H764.94V229.86H691.54V147.15L644.67 216.07L597.46 147.15V229.86H524.06V0H524.05Z" fill="white"/>
          </g>
        </svg>