<svg width="32" height="28" viewBox="0 0 32 28" fill="none" xmlns="http://www.w3.org/2000/svg">
<g id="Group 1125">
<path id="Path 1139" d="M27.0122 7.9375L22.4987 12.451C22.7762 13.5627 22.7615 14.7273 22.4556 15.8316C22.1498 16.9358 21.5633 17.9421 20.7533 18.7525C19.9433 19.563 18.9372 20.15 17.8331 20.4565C16.7291 20.763 15.5646 20.7785 14.4527 20.5015L11.3867 23.5675C12.8847 24.0109 14.4384 24.2367 16.0006 24.238C19.319 24.1555 22.5499 23.1556 25.3348 21.3491C28.1196 19.5426 30.3497 17.0001 31.7777 14.0035C30.5958 11.6928 28.9775 9.63286 27.0122 7.9375Z" fill="#A6A6A6"/>
<path id="Path 1140" d="M27.938 0.535156L23.0826 5.38916C20.8738 4.32328 18.4536 3.76758 16.001 3.76316C12.6822 3.84565 9.45115 4.84574 6.66605 6.65252C3.88094 8.45931 1.65075 11.0022 0.222656 13.9992C1.77315 17.0492 4.09573 19.6397 6.95911 21.5127L1.00864 27.4632H4.06412L30.9921 0.535156H27.938ZM16.001 10.6242C15.4267 10.6205 14.8611 10.7645 14.3583 11.0422C13.8555 11.3199 13.4325 11.722 13.1298 12.2101C12.827 12.6982 12.6547 13.2559 12.6292 13.8297C12.6038 14.4035 12.7262 14.9742 12.9846 15.4872L10.5846 17.8872C9.75408 16.7614 9.30522 15.3996 9.30359 14.0007C9.30359 12.2248 10.0091 10.5216 11.2648 9.26587C12.5206 8.01013 14.2237 7.30466 15.9996 7.30466C17.398 7.30651 18.7592 7.75535 19.8845 8.58566L17.4846 10.9857C17.0247 10.7519 16.5169 10.6281 16.001 10.6242Z" fill="#A6A6A6"/>
</g>
</svg>
